<svg xmlns="http://www.w3.org/2000/svg" width="725.58905pt" height="150pt" viewBox="0 0 725.58904 149.99999"><path fill="#003070" d="M675.874 134.806c8.846 0 16.011-6.618 16.011-15.097 0-8.468-7.165-14.929-16.01-14.929-8.852 0-15.679 6.461-15.679 14.929 0 8.479 6.827 15.097 15.678 15.097m-33.905-15.075c0-16.54 14.495-30.116 34.075-30.116 19.568 0 34.062 13.575 34.062 30.116S695.612 150 676.044 150c-19.58 0-34.075-13.728-34.075-30.269M243.244 107.777h18.813V131.4h55.982v15.38h-74.795zM710.796 29.679v19.89h14.793v15.678h-14.793v23.221h-18.294v-58.79ZM632.386 29.717c-.09 16.524-.919 30.116-25.127 41.414l8.812 13.474c10.446-3.016 22.195-12.11 26.688-20.2 4.5 8.09 16.237 17.184 26.683 20.2l8.818-13.474c-24.203-11.298-25.048-24.89-25.127-41.414ZM432.186 57.462h-9.652V29.905h-17.251V148.72h17.251V74.764h9.652v73.955h17.764V29.905h-17.764zM570.468 57.462h-8.36V29.905h-17.455V148.72h17.454V74.764h8.361v73.955h17.95V29.905h-17.95zM299.816 92.662h-13.885V77.378h13.885V67.134h-13.908v-15.29h13.908V29.848h18.3v87.372h-18.3zM521.345 68.688c0 6.331-5.412 12.442-12.448 12.442-7.025 0-12.442-6.111-12.442-12.442 0-6.314 5.417-12.448 12.442-12.448 7.036 0 12.448 6.134 12.448 12.448m-21.683-44.036v9.449h-20.876v14.511h10.294c-6.156 4.138-9.736 12.02-9.736 20.392 0 14.438 12.426 26.773 29.581 26.773 17.161 0 29.575-12.335 29.575-26.773 0-8.372-3.568-16.254-9.736-20.392h10.306V34.101h-20.888v-9.449zM260.99 67.513c0 6.33-5.428 11.816-12.447 11.816-7.03 0-12.448-5.485-12.448-11.816 0-6.32 5.418-11.811 12.448-11.811 7.019 0 12.448 5.49 12.448 11.81m-22.196-42.778v9.454h-23.227v14.517h12.91c-6.015 4.003-9.488 11.777-9.488 19.129 0 14.438 12.42 26.147 29.575 26.147 17.161 0 29.575-11.71 29.575-26.147 0-7.352-3.467-15.126-9.493-19.129h12.916V34.188H258.33v-9.454zM399.01 93.923h-29.87V48.838h24.542V33.256h-43.19v76.317h48.517z" style="stroke-width:5.63767"/><path fill="#f18d00" d="M55.728 48.304c26.734 0 48.355-21.564 48.355-48.298L148.67 0l-.028 148.631h-55.74V85.473H55.728v63.181H0V.006h55.728z" style="stroke-width:5.63767"/></svg>